<svg xmlns="http://www.w3.org/2000/svg" viewBox="0 0 512 512" width="512" height="512">
  <rect width="512" height="512" rx="112" fill="#6BBF59"/>
  <g transform="translate(256 256) scale(3.6) translate(-50 -50)">
  <circle cx="50" cy="50" r="46" fill="#A67C52"/>
  <circle cx="50" cy="50" r="40" fill="#F4F0E4"/>
  <circle cx="50" cy="50" r="36" fill="#A8E08F"/>
  <circle cx="50" cy="50" r="8" fill="#FBF8F0"/><g><ellipse cx="76.00" cy="50.00" rx="2" ry="3.4" fill="#2E3A24" transform="rotate(90.00 76.00 50.00)"/><ellipse cx="72.52" cy="63.00" rx="2" ry="3.4" fill="#2E3A24" transform="rotate(120.00 72.52 63.00)"/><ellipse cx="63.00" cy="72.52" rx="2" ry="3.4" fill="#2E3A24" transform="rotate(150.00 63.00 72.52)"/><ellipse cx="50.00" cy="76.00" rx="2" ry="3.4" fill="#2E3A24" transform="rotate(180.00 50.00 76.00)"/><ellipse cx="37.00" cy="72.52" rx="2" ry="3.4" fill="#2E3A24" transform="rotate(210.00 37.00 72.52)"/><ellipse cx="27.48" cy="63.00" rx="2" ry="3.4" fill="#2E3A24" transform="rotate(240.00 27.48 63.00)"/><ellipse cx="24.00" cy="50.00" rx="2" ry="3.4" fill="#2E3A24" transform="rotate(270.00 24.00 50.00)"/><ellipse cx="27.48" cy="37.00" rx="2" ry="3.4" fill="#2E3A24" transform="rotate(300.00 27.48 37.00)"/><ellipse cx="37.00" cy="27.48" rx="2" ry="3.4" fill="#2E3A24" transform="rotate(330.00 37.00 27.48)"/><ellipse cx="50.00" cy="24.00" rx="2" ry="3.4" fill="#2E3A24" transform="rotate(360.00 50.00 24.00)"/><ellipse cx="63.00" cy="27.48" rx="2" ry="3.4" fill="#2E3A24" transform="rotate(390.00 63.00 27.48)"/><ellipse cx="72.52" cy="37.00" rx="2" ry="3.4" fill="#2E3A24" transform="rotate(420.00 72.52 37.00)"/><ellipse cx="64.74" cy="56.23" rx="1.6" ry="2.8" fill="#2E3A24" transform="rotate(112.92 64.74 56.23)"/><ellipse cx="56.01" cy="64.83" rx="1.6" ry="2.8" fill="#2E3A24" transform="rotate(157.92 56.01 64.83)"/><ellipse cx="43.77" cy="64.74" rx="1.6" ry="2.8" fill="#2E3A24" transform="rotate(202.92 43.77 64.74)"/><ellipse cx="35.17" cy="56.01" rx="1.6" ry="2.8" fill="#2E3A24" transform="rotate(247.92 35.17 56.01)"/><ellipse cx="35.26" cy="43.77" rx="1.6" ry="2.8" fill="#2E3A24" transform="rotate(292.92 35.26 43.77)"/><ellipse cx="43.99" cy="35.17" rx="1.6" ry="2.8" fill="#2E3A24" transform="rotate(337.92 43.99 35.17)"/><ellipse cx="56.23" cy="35.26" rx="1.6" ry="2.8" fill="#2E3A24" transform="rotate(382.92 56.23 35.26)"/><ellipse cx="64.83" cy="43.99" rx="1.6" ry="2.8" fill="#2E3A24" transform="rotate(427.92 64.83 43.99)"/></g></g>
</svg>